<svg width="1920" height="1080" viewBox="0 0 1920 1080" xmlns="http://www.w3.org/2000/svg"><path d="M 0,1080 C 0,1080 0,154 0,154 C 40.76679308443224,172.5079465093694 81.53358616886447,191.01589301873878 136,197 C 190.46641383113553,202.98410698126122 258.63244840897437,196.44437443441427 315,183 C 371.36755159102563,169.55562556558573 415.93662019523805,149.20660924360416 454,150 C 492.06337980476195,150.79339075639584 523.6210708100734,172.72918859116913 570,182 C 616.3789291899266,191.27081140883087 677.5790965644682,187.8766363917194 736,188 C 794.4209034355318,188.1233636082806 850.0625429320538,191.76426584195335 891,186 C 931.9374570679462,180.23573415804665 958.1707317073171,165.06630024046717 1006,160 C 1053.8292682926829,154.93369975953283 1123.2545302386782,159.97053319617788 1175,152 C 1226.7454697613218,144.02946680382212 1260.8111473379709,123.05156697482133 1316,118 C 1371.1888526620291,112.94843302517867 1447.5008804094389,123.82319890453684 1495,130 C 1542.4991195905611,136.17680109546316 1561.185331024274,137.65563740703135 1597,132 C 1632.814668975726,126.34436259296864 1685.7577954934648,113.5542514673377 1744,130 C 1802.2422045065352,146.4457485326623 1865.7834870018673,192.1273567236178 1896,201 C 1926.2165129981327,209.8726432763822 1923.1082564990663,181.9363216381911 1920,154 C 1920,154 1920,1080 1920,1080 Z" fill="#22009b" opacity="0.08571428571428572"/><path d="M 0,1080 C 0,1080 0,308 0,308 C 62.32711802787195,336.5812026112227 124.6542360557439,365.16240522244544 172,357 C 219.3457639442561,348.83759477755456 251.71017380489633,303.931581721441 287,282 C 322.2898261951037,260.068418278559 360.5050687246708,261.1112678917907 420,266 C 479.4949312753292,270.8887321082093 560.2695512964203,279.62334671139615 612,278 C 663.7304487035797,276.37665328860385 686.4167260896481,264.3953452626246 731,288 C 775.5832739103519,311.6046547373754 842.0635443449875,370.79527223810544 897,362 C 951.9364556550125,353.20472776189456 995.3290965304018,276.4235657849536 1045,257 C 1094.6709034695982,237.5764342150464 1150.6200695334048,275.51046462208006 1192,287 C 1233.3799304665952,298.48953537791994 1260.190625335979,283.53457572672613 1305,300 C 1349.809374664021,316.46542427327387 1412.6174291226796,364.3512324710154 1470,356 C 1527.3825708773204,347.6487675289846 1579.3396581733025,283.06049438921235 1634,270 C 1688.6603418266975,256.93950561078765 1746.0239381841109,295.40678997213513 1795,310 C 1843.9760618158891,324.59321002786487 1884.564589090254,315.31234572224713 1904,311 C 1923.435410909746,306.68765427775287 1921.7177054548729,307.34382713887646 1920,308 C 1920,308 1920,1080 1920,1080 Z" fill="#22009b" opacity="0.17142857142857143"/><path d="M 0,1080 C 0,1080 0,462 0,462 C 42.32370874077196,477.2985879791476 84.64741748154393,492.5971759582952 133,489 C 181.35258251845607,485.4028240417048 235.73403881459632,462.9098841459667 284,454 C 332.2659611854037,445.0901158540333 374.41642726007075,449.76328745783786 424,467 C 473.58357273992925,484.23671254216214 530.6002521451209,514.0369660226819 582,514 C 633.3997478548791,513.9630339773181 679.1825641594462,484.0888484514346 735,477 C 790.8174358405538,469.9111515485654 856.6694912170948,485.60764017157965 903,475 C 949.3305087829052,464.39235982842035 976.1394709721744,427.4805908622467 1024,431 C 1071.8605290278256,434.5194091377533 1140.7726248942072,478.4699963794337 1194,487 C 1247.2273751057928,495.5300036205663 1284.770029450997,468.63942362001853 1325,453 C 1365.229970549003,437.36057637998147 1408.1472573018045,432.9723091404922 1459,441 C 1509.8527426981955,449.0276908595078 1568.6409413417844,469.47133981801244 1613,459 C 1657.3590586582156,448.52866018198756 1687.288977331058,407.14233158745816 1751,407 C 1814.711022668942,406.85766841254184 1912.2031493339837,447.95933383215487 1946,464 C 1979.7968506660163,480.04066616784513 1949.8984253330082,471.02033308392254 1920,462 C 1920,462 1920,1080 1920,1080 Z" fill="#22009b" opacity="0.2571428571428571"/><path d="M 0,1080 C 0,1080 0,617 0,617 C 38.84499172938385,587.7511362814128 77.6899834587677,558.5022725628254 132,579 C 186.3100165412323,599.4977274371746 256.0850578943131,669.742046030111 316,670 C 375.9149421056869,670.257953969889 425.96978496398026,600.5295433167304 468,578 C 510.03021503601974,555.4704566832696 544.0358022497657,580.1397807029676 593,601 C 641.9641977502343,621.8602192970324 705.887006036957,638.911333871399 758,653 C 810.112993963043,667.088666128601 850.4161736024063,678.2148838114357 894,671 C 937.5838263975937,663.7851161885643 984.4482995534181,638.2291308828582 1038,626 C 1091.551700446582,613.7708691171418 1151.7906281839214,614.8685926571318 1200,615 C 1248.2093718160786,615.1314073428682 1284.389187710896,614.2964984886146 1332,608 C 1379.610812289104,601.7035015113854 1438.6526209724946,589.9454133884099 1484,585 C 1529.3473790275054,580.0545866115901 1561.0003283991252,581.9218479577459 1600,599 C 1638.9996716008748,616.0781520422541 1685.346065431005,648.367194780607 1749,661 C 1812.653934568995,673.632805219393 1893.6154098768557,666.6093729198266 1925,656 C 1956.3845901231443,645.3906270801734 1938.1922950615722,631.1953135400868 1920,617 C 1920,617 1920,1080 1920,1080 Z" fill="#22009b" opacity="0.34285714285714286"/><path d="M 0,1080 C 0,1080 0,771 0,771 C 45.67123268631437,751.7946206860653 91.34246537262874,732.5892413721306 132,732 C 172.65753462737126,731.4107586278694 208.3013711957994,749.437655197543 267,769 C 325.6986288042006,788.562344802457 407.45204984417387,809.6601378376976 461,801 C 514.5479501558261,792.3398621623024 539.890429427505,753.9217934516669 587,735 C 634.109570572495,716.0782065483331 702.9862324458062,716.6526883556347 750,736 C 797.0137675541938,755.3473116443653 822.1646407892698,793.4674531257941 864,802 C 905.8353592107302,810.5325468742059 964.3552043971144,789.4774991411887 1015,790 C 1065.6447956028856,790.5225008588113 1108.4145416222723,812.6225503094514 1158,820 C 1207.5854583777277,827.3774496905486 1263.9866291137955,820.0322996210056 1315,809 C 1366.0133708862045,797.9677003789944 1411.6389419225463,783.248251206526 1458,775 C 1504.3610580774537,766.751748793474 1551.4576031960185,764.97469555289 1598,780 C 1644.5423968039815,795.02530444711 1690.5306452933796,826.8529665819143 1755,812 C 1819.4693547066204,797.1470334180857 1902.419815630463,735.6134381194531 1933,721 C 1963.580184369537,706.3865618805469 1941.7900921847686,738.6932809402734 1920,771 C 1920,771 1920,1080 1920,1080 Z" fill="#22009b" opacity="0.4285714285714286"/><path d="M 0,1080 C 0,1080 0,925 0,925 C 52.97003419302594,913.5757601792486 105.94006838605188,902.1515203584974 152,897 C 198.05993161394812,891.8484796415026 237.20976064881853,892.9696787452592 287,907 C 336.79023935118147,921.0303212547408 397.220889018674,947.9697646604659 441,940 C 484.779110981326,932.0302353395341 511.90668327648575,889.151262612877 567,879 C 622.0933167235142,868.848737387123 705.152377875383,891.4251848880261 758,896 C 810.847622124617,900.5748151119739 833.4838052219823,887.1479978350186 866,880 C 898.5161947780177,872.8520021649814 940.9124012366885,871.9828237718997 1006,894 C 1071.0875987633115,916.0171762281003 1158.866589831264,960.9207070773826 1207,963 C 1255.133410168736,965.0792929226174 1263.621239438255,924.3343479185696 1311,907 C 1358.378760561745,889.6656520814304 1444.648452415716,895.7419012483392 1500,896 C 1555.351547584284,896.2580987516608 1579.78495089888,890.698047088074 1626,902 C 1672.21504910112,913.301952911926 1740.211743988763,941.4659103993648 1795,950 C 1849.788256011237,958.5340896006352 1891.3680731460677,947.4383113144673 1910,940 C 1928.6319268539323,932.5616886855327 1924.3159634269662,928.7808443427664 1920,925 C 1920,925 1920,1080 1920,1080 Z" fill="#22009b" opacity="0.5142857142857142"/><path d="M 0,1080 C 0,1080 0,1079 0,1079 C 59.292867157375795,1077.5626245549067 118.58573431475159,1076.1252491098135 170,1064 C 221.4142656852484,1051.8747508901865 264.94992989836936,1029.0616281156526 303,1037 C 341.05007010163064,1044.9383718843474 373.61454609177105,1083.628238427576 423,1112 C 472.38545390822895,1140.371761572424 538.5918857345463,1158.4254181740434 587,1134 C 635.4081142654537,1109.5745818259566 666.0179109700433,1042.6700888762493 721,1028 C 775.9820890299567,1013.3299111237505 855.3364703852801,1050.894226320958 911,1054 C 966.6635296147199,1057.105773679042 998.6362074888355,1025.7530058399177 1043,1031 C 1087.3637925111645,1036.2469941600823 1144.1186996593779,1078.0937503193713 1197,1107 C 1249.8813003406221,1135.9062496806287 1298.8889938736531,1151.8719928825963 1345,1126 C 1391.1110061263469,1100.1280071174037 1434.32532484601,1032.4182781502436 1473,1031 C 1511.67467515399,1029.5817218497564 1545.8097067423066,1094.4548945164295 1598,1129 C 1650.1902932576934,1163.5451054835705 1720.435848184764,1167.7621437840382 1783,1137 C 1845.564151815236,1106.2378562159618 1900.4469005186388,1040.4965303474178 1922,1025 C 1943.5530994813612,1009.5034696525823 1931.7765497406806,1044.251734826291 1920,1079 C 1920,1079 1920,1080 1920,1080 Z" fill="#22009b" opacity="0.6"/></svg>